<svg width="16" height="16" viewBox="0 0 16 16" fill="none" xmlns="http://www.w3.org/2000/svg">
<g clip-path="url(#clip0_743_44)">
<path d="M8 16C12.4107 16 16 12.4107 16 8C16 3.58934 12.4107 0 8 0C3.5893 0 0 3.58934 0 8C0 12.4107 3.58934 16 8 16ZM8 1.06665C11.824 1.06665 14.9334 4.17597 14.9334 8C14.9334 11.824 11.824 14.9334 8 14.9334C4.17597 14.9334 1.06665 11.824 1.06665 8C1.06665 4.17597 4.17602 1.06665 8 1.06665Z" fill="black" fill-opacity="0.55"/>
<path d="M10.3335 10.5495C10.4321 10.6295 10.5494 10.6669 10.6668 10.6669C10.7467 10.667 10.8256 10.6491 10.8977 10.6145C10.9697 10.5799 11.033 10.5294 11.0828 10.4669C11.2668 10.2375 11.2294 9.90153 11.0001 9.71752L8.53345 7.74418V3.73352C8.53345 3.44018 8.29346 3.2002 8.00012 3.2002C7.70678 3.2002 7.4668 3.44018 7.4668 3.73352V8.0002C7.4668 8.16288 7.54148 8.31487 7.66679 8.41618L10.3335 10.5495Z" fill="black" fill-opacity="0.55"/>
</g>
<defs>
<clipPath id="clip0_743_44">
<rect width="16" height="16" fill="white"/>
</clipPath>
</defs>
</svg>
