<svg width="35" height="35" viewBox="0 0 35 35" fill="none" xmlns="http://www.w3.org/2000/svg">
<path d="M20.8496 17.5C20.8496 19.35 19.3499 20.8496 17.5 20.8496C15.6501 20.8496 14.1504 19.3499 14.1504 17.5C14.1504 15.6501 15.6501 14.1504 17.5 14.1504C19.3499 14.1504 20.8496 15.6501 20.8496 17.5Z" fill="white"/>
<path d="M25.3337 11.5734C25.1726 11.1369 24.9158 10.7421 24.582 10.4179C24.2579 10.0841 23.8631 9.82728 23.4265 9.66627C23.0724 9.5288 22.5406 9.36508 21.5608 9.32051C20.501 9.27218 20.1832 9.26172 17.5001 9.26172C14.8167 9.26172 14.499 9.2719 13.4394 9.32023C12.4597 9.36508 11.9275 9.52873 11.5737 9.66627C11.1372 9.82722 10.7423 10.0841 10.4182 10.4179C10.0844 10.7421 9.82748 11.1369 9.66627 11.5734C9.5288 11.9275 9.36508 12.4597 9.32051 13.4394C9.27218 14.499 9.26172 14.8167 9.26172 17.5001C9.26172 20.1832 9.27218 20.501 9.32051 21.5608C9.36508 22.5405 9.5288 23.0725 9.66627 23.4265C9.82738 23.863 10.0842 24.2578 10.4179 24.582C10.7421 24.9158 11.1369 25.1727 11.5734 25.3337C11.9275 25.4714 12.4597 25.6352 13.4394 25.6797C14.499 25.7281 14.8165 25.7382 17.4998 25.7382C20.1835 25.7382 20.5012 25.7281 21.5605 25.6797C22.5403 25.6352 23.0725 25.4714 23.4265 25.3337C23.8599 25.1665 24.2535 24.9105 24.582 24.582C24.9105 24.2535 25.1665 23.8599 25.3337 23.4265C25.4712 23.0724 25.6349 22.5406 25.6797 21.5608C25.7281 20.501 25.7382 20.1832 25.7382 17.5001C25.7382 14.8167 25.7281 14.499 25.6797 13.4394C25.6352 12.4597 25.4714 11.9275 25.3337 11.5734ZM17.5001 22.6599C14.6501 22.6599 12.3398 20.3498 12.3398 17.4998C12.3398 14.6499 14.6501 12.3398 17.5001 12.3398C20.3499 12.3398 22.6602 14.6499 22.6602 17.4998C22.6602 20.3498 20.3499 22.6599 17.5001 22.6599ZM22.8642 13.3417C22.1983 13.3417 21.6583 12.8017 21.6583 12.1358C21.6583 11.4699 22.1983 10.9299 22.8642 10.9299C23.5302 10.9299 24.0701 11.4698 24.0701 12.1358C24.0698 12.8017 23.5302 13.3417 22.8642 13.3417Z" fill="white"/>
<path d="M17.5 0C7.83651 0 0 7.83651 0 17.5C0 27.1635 7.83651 35 17.5 35C27.1635 35 35 27.1635 35 17.5C35 7.83651 27.1635 0 17.5 0ZM27.4882 21.6429C27.4397 22.7127 27.2695 23.443 27.0212 24.0823C26.763 24.7498 26.3682 25.356 25.8621 25.8621C25.356 26.3682 24.7498 26.763 24.0823 27.0212C23.4432 27.2695 22.7127 27.4393 21.6432 27.4882C20.5717 27.5371 20.2293 27.5488 17.5003 27.5488C14.771 27.5488 14.4289 27.5371 13.357 27.4882C12.2876 27.4393 11.557 27.2695 10.9179 27.0212C10.2474 26.7689 9.6399 26.3733 9.13801 25.862C8.62687 25.3601 8.23138 24.7527 7.97911 24.0823C7.73076 23.4432 7.56068 22.7127 7.51208 21.6432C7.46266 20.5713 7.45117 20.229 7.45117 17.5C7.45117 14.771 7.46266 14.4286 7.51181 13.3571C7.56034 12.2873 7.73021 11.557 7.97856 10.9177C8.23091 10.2472 8.62658 9.63982 9.13794 9.13801C9.63978 8.62669 10.2472 8.23109 10.9177 7.97884C11.557 7.73049 12.2873 7.56068 13.3571 7.51181C14.4286 7.46293 14.771 7.45117 17.5 7.45117C20.229 7.45117 20.5714 7.46293 21.6429 7.51201C22.7127 7.56068 23.443 7.73049 24.0823 7.97856C24.7529 8.23096 25.3604 8.62662 25.8623 9.13794C26.3735 9.63984 26.769 10.2472 27.0212 10.9177C27.2698 11.557 27.4396 12.2873 27.4885 13.3571C27.5373 14.4286 27.5488 14.771 27.5488 17.5C27.5488 20.229 27.5373 20.5714 27.4882 21.6429Z" fill="white"/>
</svg>
