<svg width="28" height="28" viewBox="0 0 28 28" fill="none" xmlns="http://www.w3.org/2000/svg">
<path d="M26.1721 12.0311L20.7217 17.3441L22.0089 24.8481C22.0364 25.0091 22.0184 25.1745 21.9569 25.3257C21.8954 25.4769 21.7928 25.6079 21.6607 25.7039C21.5286 25.7998 21.3723 25.8569 21.2095 25.8686C21.0466 25.8804 20.8837 25.8464 20.7392 25.7704L14 22.2275L7.26162 25.7695C7.11711 25.8455 6.95424 25.8795 6.7914 25.8678C6.62857 25.856 6.47227 25.7989 6.34018 25.703C6.20809 25.607 6.10548 25.476 6.04395 25.3248C5.98242 25.1736 5.96442 25.0082 5.99199 24.8473L7.27912 17.3433L1.82787 12.0311C1.71086 11.9171 1.6281 11.7727 1.58896 11.6141C1.54982 11.4555 1.55586 11.2891 1.6064 11.1337C1.65694 10.9784 1.74995 10.8403 1.87492 10.7351C1.99988 10.6299 2.15181 10.5617 2.31349 10.5384L9.84637 9.44465L13.2151 2.6179C13.51 2.02027 14.49 2.02027 14.7849 2.6179L18.1536 9.44465L25.6865 10.5384C25.8478 10.5623 25.9993 10.6308 26.1238 10.7361C26.2483 10.8414 26.341 10.9793 26.3915 11.1344C26.4419 11.2895 26.4481 11.4556 26.4094 11.614C26.3706 11.7724 26.2885 11.9169 26.1721 12.0311Z" fill="#EB8425"/>
</svg>
